<svg width="280" height="44" viewBox="0 0 280 44" fill="none" xmlns="http://www.w3.org/2000/svg"><path d="M23.559 23.616H13.85V8.371h9.709v15.245zM29.11.057H0v42.961h13.865V31.93H29.11l8.313-8.313V8.371L29.11.057zM105.353 0H91.488v42.975h13.865V0zm49.893 0l-13.865 19.402L127.516 0h-13.85v42.975h13.85V22.221l13.865 20.754 13.865-20.797v20.797h13.865V0h-13.865zm47.13 0v34.648h-11.089V0h-13.865v34.648l8.313 8.327h22.178l8.313-8.328V0h-13.85zm52.67 23.559L238.405 0h-13.85v42.975h13.85V23.559l13.865 19.517 13.865-19.517h-11.089z" fill="#fff"/><path d="M266.134 0L252.27 19.402h13.864v23.573h13.865V0h-13.865z" fill="#CA2534"/><path d="M69.31 23.587l-9.71-.027V8.313h9.708v15.274zm5.551 8.3l8.313-8.314V8.313L74.847 0h-29.11v42.975H59.6V31.886h1.38l8.314 11.089H83.16l-8.313-11.089h.014z" fill="#fff"/></svg>